<svg width="25" height="29" viewBox="0 0 25 29" fill="none" xmlns="http://www.w3.org/2000/svg">
<rect width="25" height="29" rx="6" fill="#36AE7C" fill-opacity="0.3"/>
<path d="M15.322 9.984H10.408V13.176C10.6227 12.8773 10.94 12.6347 11.36 12.448C11.78 12.252 12.2327 12.154 12.718 12.154C13.4927 12.154 14.1227 12.3173 14.608 12.644C15.0933 12.9613 15.4387 13.3767 15.644 13.89C15.8587 14.394 15.966 14.9307 15.966 15.5C15.966 16.172 15.84 16.774 15.588 17.306C15.336 17.838 14.9487 18.258 14.426 18.566C13.9127 18.874 13.2733 19.028 12.508 19.028C11.528 19.028 10.7347 18.776 10.128 18.272C9.52133 17.768 9.15267 17.096 9.022 16.256H10.268C10.3893 16.788 10.646 17.2033 11.038 17.502C11.43 17.8007 11.9247 17.95 12.522 17.95C13.2593 17.95 13.8147 17.7307 14.188 17.292C14.5613 16.844 14.748 16.256 14.748 15.528C14.748 14.8 14.5613 14.24 14.188 13.848C13.8147 13.4467 13.264 13.246 12.536 13.246C12.0413 13.246 11.6073 13.3673 11.234 13.61C10.87 13.8433 10.604 14.1653 10.436 14.576H9.232V8.864H15.322V9.984Z" fill="#36AE7C"/>
</svg>
