<svg width="32" height="32" viewBox="0 0 32 32" fill="none" xmlns="http://www.w3.org/2000/svg">
<rect width="32" height="32" rx="16" fill="#EE5007" fill-opacity="0.3"/>
<path fill-rule="evenodd" clip-rule="evenodd" d="M24 16C24 18.1217 23.1571 20.1566 21.6569 21.6569C20.1566 23.1571 18.1217 24 16 24C13.8783 24 11.8434 23.1571 10.3431 21.6569C8.84285 20.1566 8 18.1217 8 16C8 13.8783 8.84285 11.8434 10.3431 10.3431C11.8434 8.84285 13.8783 8 16 8C18.1217 8 20.1566 8.84285 21.6569 10.3431C23.1571 11.8434 24 13.8783 24 16ZM22 16C22 16.993 21.759 17.929 21.332 18.754L19.808 17.229C20.0362 16.5227 20.0632 15.7668 19.886 15.046L21.448 13.484C21.802 14.249 22 15.1 22 16ZM16.835 19.913L18.415 21.493C17.654 21.8281 16.8315 22.0007 16 22C15.1312 22.0011 14.2726 21.8127 13.484 21.448L15.046 19.886C15.6327 20.0298 16.2443 20.039 16.835 19.913ZM12.158 17.117C11.9612 16.4394 11.9471 15.7218 12.117 15.037L12.037 15.117L10.507 13.584C10.1718 14.3453 9.99913 15.1682 10 16C10 16.954 10.223 17.856 10.619 18.657L12.159 17.117H12.158ZM13.246 10.667C14.0972 10.227 15.0418 9.99825 16 10C16.954 10 17.856 10.223 18.657 10.619L17.117 12.159C16.3493 11.9354 15.5321 11.9469 14.771 12.192L13.246 10.668V10.667ZM18 16C18 16.5304 17.7893 17.0391 17.4142 17.4142C17.0391 17.7893 16.5304 18 16 18C15.4696 18 14.9609 17.7893 14.5858 17.4142C14.2107 17.0391 14 16.5304 14 16C14 15.4696 14.2107 14.9609 14.5858 14.5858C14.9609 14.2107 15.4696 14 16 14C16.5304 14 17.0391 14.2107 17.4142 14.5858C17.7893 14.9609 18 15.4696 18 16Z" fill="#EE5007"/>
</svg>
