<svg width="31" height="33" viewBox="0 0 31 33" fill="none" xmlns="http://www.w3.org/2000/svg">
<rect x="0.945312" y="0.662903" width="30" height="32" rx="6" fill="#EE1D52" fill-opacity="0.3"/>
<path fill-rule="evenodd" clip-rule="evenodd" d="M10.9453 15.6629V13.6629C10.9453 12.3368 11.4721 11.0651 12.4098 10.1274C13.3475 9.18969 14.6192 8.6629 15.9453 8.6629C17.2714 8.6629 18.5432 9.18969 19.4808 10.1274C20.4185 11.0651 20.9453 12.3368 20.9453 13.6629V15.6629C21.4757 15.6629 21.9845 15.8736 22.3595 16.2487C22.7346 16.6238 22.9453 17.1325 22.9453 17.6629V22.6629C22.9453 23.1933 22.7346 23.702 22.3595 24.0771C21.9845 24.4522 21.4757 24.6629 20.9453 24.6629H10.9453C10.4149 24.6629 9.90617 24.4522 9.5311 24.0771C9.15603 23.702 8.94531 23.1933 8.94531 22.6629V17.6629C8.94531 17.1325 9.15603 16.6238 9.5311 16.2487C9.90617 15.8736 10.4149 15.6629 10.9453 15.6629ZM18.9453 13.6629V15.6629H12.9453V13.6629C12.9453 12.8673 13.2614 12.1042 13.824 11.5416C14.3866 10.979 15.1497 10.6629 15.9453 10.6629C16.741 10.6629 17.504 10.979 18.0666 11.5416C18.6292 12.1042 18.9453 12.8673 18.9453 13.6629Z" fill="#EE1D52"/>
</svg>
