<svg width="32" height="32" viewBox="0 0 32 32" fill="none" xmlns="http://www.w3.org/2000/svg">
<rect width="32" height="32" rx="16" fill="#B22727" fill-opacity="0.3"/>
<path fill-rule="evenodd" clip-rule="evenodd" d="M16 24C18.1217 24 20.1566 23.1571 21.6569 21.6569C23.1571 20.1566 24 18.1217 24 16C24 13.8783 23.1571 11.8434 21.6569 10.3431C20.1566 8.84285 18.1217 8 16 8C13.8783 8 11.8434 8.84285 10.3431 10.3431C8.84285 11.8434 8 13.8783 8 16C8 18.1217 8.84285 20.1566 10.3431 21.6569C11.8434 23.1571 13.8783 24 16 24ZM15.555 13.168C15.4044 13.0675 15.2293 13.0098 15.0485 13.001C14.8677 12.9922 14.6879 13.0327 14.5282 13.1181C14.3686 13.2035 14.2352 13.3307 14.1421 13.486C14.0491 13.6413 14 13.819 14 14V18C14 18.181 14.0491 18.3587 14.1421 18.514C14.2352 18.6693 14.3686 18.7965 14.5282 18.8819C14.6879 18.9673 14.8677 19.0078 15.0485 18.999C15.2293 18.9902 15.4044 18.9325 15.555 18.832L18.555 16.832C18.692 16.7407 18.8043 16.617 18.8819 16.4718C18.9596 16.3267 19.0002 16.1646 19.0002 16C19.0002 15.8354 18.9596 15.6733 18.8819 15.5282C18.8043 15.383 18.692 15.2593 18.555 15.168L15.555 13.168Z" fill="#B22727"/>
</svg>
