<svg width="14" height="18" viewBox="0 0 14 18" fill="none" xmlns="http://www.w3.org/2000/svg">
<path fill-rule="evenodd" clip-rule="evenodd" d="M2.05051 2.60019C3.36333 1.28737 5.14389 0.549835 7.0005 0.549835C8.85711 0.549835 10.6377 1.28737 11.9505 2.60019C13.2633 3.91301 14.0009 5.69358 14.0009 7.55019C14.0009 9.4068 13.2633 11.1874 11.9505 12.5002L7.0005 17.4502L2.05051 12.5002C1.40042 11.8502 0.884739 11.0785 0.532912 10.2291C0.181084 9.37982 0 8.46951 0 7.55019C0 6.63088 0.181084 5.72057 0.532912 4.87124C0.884739 4.02192 1.40042 3.25021 2.05051 2.60019ZM7.0005 9.55019C7.53094 9.55019 8.03965 9.33948 8.41472 8.96441C8.78979 8.58933 9.00051 8.08063 9.00051 7.55019C9.00051 7.01976 8.78979 6.51105 8.41472 6.13598C8.03965 5.76091 7.53094 5.55019 7.0005 5.55019C6.47007 5.55019 5.96136 5.76091 5.58629 6.13598C5.21122 6.51105 5.0005 7.01976 5.0005 7.55019C5.0005 8.08063 5.21122 8.58933 5.58629 8.96441C5.96136 9.33948 6.47007 9.55019 7.0005 9.55019Z" fill="#FF498B"/>
</svg>
