<svg width="6" height="10" viewBox="0 0 6 10" fill="none" xmlns="http://www.w3.org/2000/svg">
<path fill-rule="evenodd" clip-rule="evenodd" d="M0.293031 9.707C0.10556 9.51947 0.000244141 9.26516 0.000244141 9C0.000244141 8.73483 0.10556 8.48053 0.293031 8.293L3.58603 5L0.293031 1.707C0.110873 1.5184 0.0100779 1.26579 0.0123563 1.0036C0.0146347 0.741401 0.119804 0.490589 0.305212 0.305181C0.49062 0.119773 0.741433 0.0146034 1.00363 0.0123249C1.26583 0.0100465 1.51843 0.110841 1.70703 0.292999L5.70703 4.293C5.8945 4.48053 5.99982 4.73483 5.99982 5C5.99982 5.26516 5.8945 5.51947 5.70703 5.707L1.70703 9.707C1.5195 9.89447 1.26519 9.99979 1.00003 9.99979C0.734866 9.99979 0.480558 9.89447 0.293031 9.707Z" fill="white"/>
</svg>
