<svg width="35" height="30" viewBox="0 0 35 30" fill="none" xmlns="http://www.w3.org/2000/svg">
<rect width="34.9454" height="29.9998" rx="6" fill="#EE1D52" fill-opacity="0.3"/>
<path fill-rule="evenodd" clip-rule="evenodd" d="M25.2507 13.2218C20.9547 8.92575 13.9907 8.92575 9.69471 13.2218C9.50611 13.4039 9.25351 13.5047 8.99131 13.5024C8.72911 13.5001 8.4783 13.395 8.29289 13.2096C8.10749 13.0242 8.00232 12.7733 8.00004 12.5112C7.99776 12.249 8.09855 11.9964 8.28071 11.8078C13.3567 6.73075 21.5887 6.73075 26.6647 11.8078C26.8469 11.9964 26.9477 12.249 26.9454 12.5112C26.9431 12.7733 26.8379 13.0242 26.6525 13.2096C26.4671 13.395 26.2163 13.5001 25.9541 13.5024C25.6919 13.5047 25.4393 13.4039 25.2507 13.2218ZM22.4227 16.0498C21.7727 15.3997 21.001 14.884 20.1517 14.5322C19.3023 14.1803 18.392 13.9992 17.4727 13.9992C16.5534 13.9992 15.6431 14.1803 14.7938 14.5322C13.9444 14.884 13.1727 15.3997 12.5227 16.0498C12.3341 16.2319 12.0815 16.3327 11.8193 16.3304C11.5571 16.3281 11.3063 16.223 11.1209 16.0376C10.9355 15.8522 10.8303 15.6013 10.828 15.3392C10.8258 15.077 10.9266 14.8244 11.1087 14.6357C11.9444 13.8 12.9366 13.1371 14.0285 12.6848C15.1205 12.2325 16.2908 11.9997 17.4727 11.9997C18.6546 11.9997 19.825 12.2325 20.9169 12.6848C22.0088 13.1371 23.001 13.8 23.8367 14.6357C24.0189 14.8244 24.1197 15.077 24.1174 15.3392C24.1151 15.6013 24.0099 15.8522 23.8245 16.0376C23.6391 16.223 23.3883 16.3281 23.1261 16.3304C22.8639 16.3327 22.6113 16.2319 22.4227 16.0498ZM19.5927 18.8798C19.0301 18.3173 18.2672 18.0014 17.4717 18.0014C16.6762 18.0014 15.9133 18.3173 15.3507 18.8798C15.1631 19.0674 14.9086 19.1728 14.6432 19.1728C14.3778 19.1728 14.1234 19.0674 13.9357 18.8798C13.7481 18.6921 13.6427 18.4376 13.6427 18.1722C13.6427 17.9069 13.7481 17.6524 13.9357 17.4648C14.4 17.0003 14.9513 16.6319 15.558 16.3805C16.1647 16.1292 16.815 15.9998 17.4717 15.9998C18.1284 15.9998 18.7787 16.1292 19.3854 16.3805C19.9921 16.6319 20.5434 17.0003 21.0077 17.4648C21.1954 17.6524 21.3008 17.9069 21.3008 18.1722C21.3008 18.4376 21.1954 18.6921 21.0077 18.8798C20.8201 19.0674 20.5656 19.1728 20.3002 19.1728C20.0348 19.1728 19.7804 19.0674 19.5927 18.8798ZM16.4727 20.9998C16.4727 20.7345 16.5781 20.4802 16.7656 20.2926C16.9531 20.1051 17.2075 19.9998 17.4727 19.9998H17.4827C17.7479 19.9998 18.0023 20.1051 18.1898 20.2926C18.3774 20.4802 18.4827 20.7345 18.4827 20.9998C18.4827 21.265 18.3774 21.5193 18.1898 21.7069C18.0023 21.8944 17.7479 21.9998 17.4827 21.9998H17.4727C17.2075 21.9998 16.9531 21.8944 16.7656 21.7069C16.5781 21.5193 16.4727 21.265 16.4727 20.9998Z" fill="#EE1D52"/>
</svg>
