<svg width="16" height="16" viewBox="0 0 16 16" fill="none" xmlns="http://www.w3.org/2000/svg">
<path fill-rule="evenodd" clip-rule="evenodd" d="M8.00098 16C5.87924 16 3.84441 15.1571 2.34412 13.6569C0.843831 12.1566 0.000976562 10.1217 0.000976562 8C0.000976562 5.87827 0.843831 3.84344 2.34412 2.34315C3.84441 0.842855 5.87924 0 8.00098 0C10.1227 0 12.1575 0.842855 13.6578 2.34315C15.1581 3.84344 16.001 5.87827 16.001 8C16.001 10.1217 15.1581 12.1566 13.6578 13.6569C12.1575 15.1571 10.1227 16 8.00098 16ZM7.00098 3C7.70631 2.9999 8.39913 3.18631 9.00919 3.54032C9.61925 3.89434 10.1249 4.40338 10.4747 5.01582C10.8246 5.62826 11.0063 6.32232 11.0015 7.02764C10.9966 7.73296 10.8053 8.42445 10.447 9.032L12.708 11.292C12.8956 11.4795 13.0011 11.7339 13.0012 11.9991C13.0012 12.1305 12.9754 12.2606 12.9252 12.3819C12.875 12.5033 12.8013 12.6136 12.7085 12.7065C12.6156 12.7994 12.5054 12.8731 12.3841 12.9234C12.2627 12.9737 12.1327 12.9997 12.0013 12.9997C11.7361 12.9998 11.4816 12.8945 11.294 12.707L9.03298 10.446C8.50313 10.7583 7.90841 10.9442 7.29504 10.9892C6.68167 11.0343 6.06616 10.9373 5.49636 10.7058C4.92657 10.4743 4.41783 10.1146 4.00968 9.65449C3.60153 9.19441 3.30498 8.64641 3.14306 8.05308C2.98114 7.45975 2.95822 6.83708 3.07608 6.23345C3.19394 5.62982 3.44941 5.0615 3.82263 4.57266C4.19585 4.08382 4.67677 3.68763 5.228 3.41487C5.77924 3.14212 6.38595 3.00015 7.00098 3Z" fill="white"/>
</svg>
