<svg width="30" height="32" viewBox="0 0 30 32" fill="none" xmlns="http://www.w3.org/2000/svg">
<rect width="30" height="31.9998" rx="6" fill="#EE1D52" fill-opacity="0.3"/>
<path fill-rule="evenodd" clip-rule="evenodd" d="M17.395 8.55335C17.3316 8.42638 17.2419 8.31436 17.1319 8.22473C17.0219 8.1351 16.8941 8.06991 16.7569 8.03349C16.6198 7.99707 16.4764 7.99026 16.3364 8.01352C16.1965 8.03677 16.063 8.08955 15.945 8.16835C15.6 8.39835 15.331 8.72635 15.123 9.04835C14.909 9.37835 14.72 9.76135 14.553 10.1643C14.219 10.9683 13.939 11.9323 13.713 12.8983C13.4397 14.0788 13.235 15.2742 13.1 16.4783C12.6931 16.216 12.3662 15.8469 12.155 15.4113C11.827 14.7313 11.757 13.8773 11.757 12.7573C11.757 12.5596 11.6983 12.3663 11.5884 12.2019C11.4785 12.0375 11.3224 11.9093 11.1397 11.8337C10.957 11.758 10.7559 11.7382 10.562 11.7768C10.368 11.8153 10.1899 11.9105 10.05 12.0503C9.39917 12.6998 8.88303 13.4714 8.53123 14.3209C8.17943 15.1703 7.9989 16.0809 8.00001 17.0003C8.00009 18.1515 8.28405 19.2848 8.82674 20.3C9.36944 21.3151 10.1541 22.1808 11.1113 22.8203C12.0684 23.4598 13.1685 23.8534 14.3141 23.9662C15.4596 24.079 16.6154 23.9075 17.6789 23.467C18.7423 23.0264 19.6808 22.3304 20.4111 21.4406C21.1413 20.5508 21.6409 19.4946 21.8655 18.3656C22.0901 17.2366 22.0328 16.0697 21.6987 14.9681C21.3645 13.8665 20.7639 12.8644 19.95 12.0503C19.358 11.4593 18.97 11.0653 18.602 10.5833C18.239 10.1073 17.878 9.52035 17.395 8.55335ZM17.12 21.1203C16.7005 21.5394 16.1661 21.8247 15.5846 21.9402C15.003 22.0557 14.4002 21.9963 13.8523 21.7695C13.3045 21.5426 12.8361 21.1585 12.5064 20.6657C12.1768 20.1728 12.0005 19.5933 12 19.0003C12 19.0003 12.879 19.5003 14.5 19.5003C14.5 18.5003 15 15.5003 15.75 15.0003C16.25 16.0003 16.536 16.2933 17.121 16.8793C17.4 17.1575 17.6213 17.4881 17.7722 17.8521C17.923 18.2161 18.0005 18.6063 18 19.0003C18.0005 19.3944 17.923 19.7846 17.7722 20.1486C17.6213 20.5126 17.4 20.8432 17.121 21.1213L17.12 21.1203Z" fill="#EE1D52"/>
</svg>
