<svg width="25" height="29" viewBox="0 0 25 29" fill="none" xmlns="http://www.w3.org/2000/svg">
<rect width="25" height="29" rx="6" fill="#36AE7C" fill-opacity="0.3"/>
<path d="M8.714 17.978C9.89933 17.026 10.828 16.2467 11.5 15.64C12.172 15.024 12.7367 14.3847 13.194 13.722C13.6607 13.05 13.894 12.392 13.894 11.748C13.894 11.1413 13.7447 10.6653 13.446 10.32C13.1567 9.96533 12.6853 9.788 12.032 9.788C11.3973 9.788 10.9027 9.98867 10.548 10.39C10.2027 10.782 10.016 11.3093 9.988 11.972H8.756C8.79333 10.9267 9.11067 10.1193 9.708 9.55C10.3053 8.98067 11.0753 8.696 12.018 8.696C12.9793 8.696 13.74 8.962 14.3 9.494C14.8693 10.026 15.154 10.7587 15.154 11.692C15.154 12.4667 14.9207 13.2227 14.454 13.96C13.9967 14.688 13.474 15.332 12.886 15.892C12.298 16.4427 11.5467 17.0867 10.632 17.824H15.448V18.888H8.714V17.978Z" fill="#36AE7C"/>
</svg>
