<svg width="25" height="30" viewBox="0 0 25 30" fill="none" xmlns="http://www.w3.org/2000/svg">
<rect y="0.5" width="25" height="29" rx="6" fill="#36AE7C" fill-opacity="0.3"/>
<path d="M8.84 11.926C8.90533 11.0673 9.23667 10.3953 9.834 9.91C10.4313 9.42467 11.206 9.182 12.158 9.182C12.7927 9.182 13.3387 9.29867 13.796 9.532C14.2627 9.756 14.6127 10.064 14.846 10.456C15.0887 10.848 15.21 11.2913 15.21 11.786C15.21 12.3647 15.042 12.864 14.706 13.284C14.3793 13.704 13.95 13.9747 13.418 14.096V14.166C14.0247 14.3153 14.5053 14.6093 14.86 15.048C15.2147 15.4867 15.392 16.0607 15.392 16.77C15.392 17.302 15.2707 17.7827 15.028 18.212C14.7853 18.632 14.4213 18.9633 13.936 19.206C13.4507 19.4487 12.8673 19.57 12.186 19.57C11.1967 19.57 10.3847 19.3133 9.75 18.8C9.11533 18.2773 8.76067 17.54 8.686 16.588H9.918C9.98333 17.148 10.212 17.6053 10.604 17.96C10.996 18.3147 11.5187 18.492 12.172 18.492C12.8253 18.492 13.32 18.324 13.656 17.988C14.0013 17.6427 14.174 17.1993 14.174 16.658C14.174 15.958 13.9407 15.454 13.474 15.146C13.0073 14.838 12.3027 14.684 11.36 14.684H11.038V13.62H11.374C12.2327 13.6107 12.8813 13.4707 13.32 13.2C13.7587 12.92 13.978 12.4907 13.978 11.912C13.978 11.4173 13.8147 11.0207 13.488 10.722C13.1707 10.4233 12.7133 10.274 12.116 10.274C11.5373 10.274 11.0707 10.4233 10.716 10.722C10.3613 11.0207 10.1513 11.422 10.086 11.926H8.84Z" fill="#36AE7C"/>
</svg>
