<svg width="25" height="29" viewBox="0 0 25 29" fill="none" xmlns="http://www.w3.org/2000/svg">
<rect width="25" height="29" rx="6" fill="#36AE7C" fill-opacity="0.3"/>
<path d="M14.51 11.286C14.3047 10.25 13.6653 9.732 12.592 9.732C11.7613 9.732 11.1407 10.054 10.73 10.698C10.3193 11.3327 10.1187 12.3827 10.128 13.848C10.3427 13.3627 10.6973 12.9847 11.192 12.714C11.696 12.434 12.256 12.294 12.872 12.294C13.8333 12.294 14.5987 12.5927 15.168 13.19C15.7467 13.7873 16.036 14.6133 16.036 15.668C16.036 16.3027 15.91 16.872 15.658 17.376C15.4153 17.88 15.042 18.2813 14.538 18.58C14.0433 18.8787 13.4413 19.028 12.732 19.028C11.7707 19.028 11.0193 18.8133 10.478 18.384C9.93667 17.9547 9.55867 17.362 9.344 16.606C9.12933 15.85 9.022 14.9167 9.022 13.806C9.022 10.3807 10.2167 8.668 12.606 8.668C13.5207 8.668 14.2393 8.91533 14.762 9.41C15.2847 9.90467 15.5927 10.53 15.686 11.286H14.51ZM12.606 13.372C12.2047 13.372 11.8267 13.456 11.472 13.624C11.1173 13.7827 10.828 14.03 10.604 14.366C10.3893 14.6927 10.282 15.094 10.282 15.57C10.282 16.2793 10.4873 16.858 10.898 17.306C11.3087 17.7447 11.8967 17.964 12.662 17.964C13.3153 17.964 13.8333 17.7633 14.216 17.362C14.608 16.9513 14.804 16.4007 14.804 15.71C14.804 14.982 14.6173 14.4127 14.244 14.002C13.8707 13.582 13.3247 13.372 12.606 13.372Z" fill="#36AE7C"/>
</svg>
