<svg width="26" height="19" viewBox="0 0 26 19" fill="none" xmlns="http://www.w3.org/2000/svg">
<rect y="0.500244" width="25.9875" height="17.9996" rx="8.99979" fill="#C3E7D8"/>
<path fill-rule="evenodd" clip-rule="evenodd" d="M19.6947 4.79303C19.8822 4.98056 19.9875 5.23487 19.9875 5.50003C19.9875 5.76519 19.8822 6.0195 19.6947 6.20703L11.6947 14.207C11.5072 14.3945 11.2529 14.4998 10.9877 14.4998C10.7225 14.4998 10.4682 14.3945 10.2807 14.207L6.28071 10.207C6.09855 10.0184 5.99776 9.76583 6.00004 9.50363C6.00232 9.24143 6.10749 8.99062 6.29289 8.80521C6.4783 8.6198 6.72911 8.51464 6.99131 8.51236C7.25351 8.51008 7.50611 8.61087 7.69471 8.79303L10.9877 12.086L18.2807 4.79303C18.4682 4.60556 18.7225 4.50024 18.9877 4.50024C19.2529 4.50024 19.5072 4.60556 19.6947 4.79303Z" fill="#36AE7C"/>
</svg>
