<svg width="46" height="46" viewBox="0 0 46 46" fill="none" xmlns="http://www.w3.org/2000/svg">
<rect width="46" height="46" rx="8" fill="#F26929"/>
<path d="M34.8861 11.9255C34.8112 11.745 34.7017 11.5809 34.5636 11.4425L34.5576 11.4365C34.2769 11.1566 33.8965 10.9996 33.5001 11H27.5001C27.1023 11 26.7208 11.158 26.4395 11.4393C26.1582 11.7206 26.0001 12.1022 26.0001 12.5C26.0001 12.8978 26.1582 13.2794 26.4395 13.5607C26.7208 13.842 27.1023 14 27.5001 14H29.8791L24.9396 18.9395C24.6664 19.2224 24.5152 19.6013 24.5186 19.9946C24.522 20.3879 24.6798 20.7641 24.9579 21.0422C25.236 21.3203 25.6122 21.4781 26.0055 21.4815C26.3988 21.4849 26.7777 21.3337 27.0606 21.0605L32.0001 16.121V18.5C32.0001 18.8978 32.1582 19.2794 32.4395 19.5607C32.7208 19.842 33.1023 20 33.5001 20C33.8979 20 34.2795 19.842 34.5608 19.5607C34.8421 19.2794 35.0001 18.8978 35.0001 18.5V12.5C35.0004 12.3029 34.9616 12.1076 34.8861 11.9255Z" fill="white"/>
<path d="M11 12.5C11 12.1022 11.158 11.7206 11.4393 11.4393C11.7206 11.158 12.1022 11 12.5 11H15.7295C16.0846 11.0002 16.428 11.1263 16.6989 11.3559C16.9697 11.5855 17.1503 11.9037 17.2085 12.254L18.3185 18.9065C18.3715 19.2233 18.3215 19.5488 18.1756 19.835C18.0298 20.1213 17.796 20.3531 17.5085 20.4965L15.1865 21.656C16.0192 23.7195 17.2593 25.5939 18.8327 27.1673C20.4061 28.7408 22.2805 29.9808 24.344 30.8135L25.505 28.4915C25.6483 28.2043 25.8799 27.9706 26.1658 27.8248C26.4518 27.679 26.7769 27.6288 27.0935 27.6815L33.746 28.7915C34.0963 28.8497 34.4145 29.0303 34.6441 29.3011C34.8737 29.572 34.9998 29.9154 35 30.2705V33.5C35 33.8978 34.842 34.2794 34.5607 34.5607C34.2794 34.842 33.8978 35 33.5 35H30.5C19.73 35 11 26.27 11 15.5V12.5Z" fill="white"/>
</svg>
