<svg width="20" height="20" viewBox="0 0 20 20" fill="none" xmlns="http://www.w3.org/2000/svg">
<path fill-rule="evenodd" clip-rule="evenodd" d="M9.9999 19.6C12.546 19.6 14.9878 18.5886 16.7881 16.7882C18.5885 14.9879 19.5999 12.5461 19.5999 9.99999C19.5999 7.45392 18.5885 5.01212 16.7881 3.21177C14.9878 1.41142 12.546 0.399994 9.9999 0.399994C7.45382 0.399994 5.01203 1.41142 3.21168 3.21177C1.41133 5.01212 0.399902 7.45392 0.399902 9.99999C0.399902 12.5461 1.41133 14.9879 3.21168 16.7882C5.01203 18.5886 7.45382 19.6 9.9999 19.6ZM14.4483 8.44839C14.6669 8.22207 14.7878 7.91895 14.7851 7.60431C14.7824 7.28968 14.6562 6.9887 14.4337 6.76621C14.2112 6.54372 13.9102 6.41752 13.5956 6.41478C13.2809 6.41205 12.9778 6.533 12.7515 6.75159L8.7999 10.7032L7.2483 9.15159C7.02198 8.933 6.71886 8.81205 6.40422 8.81479C6.08958 8.81752 5.78861 8.94372 5.56612 9.16621C5.34363 9.3887 5.21743 9.68968 5.21469 10.0043C5.21196 10.3189 5.33291 10.6221 5.5515 10.8484L7.9515 13.2484C8.17654 13.4734 8.48171 13.5997 8.7999 13.5997C9.1181 13.5997 9.42327 13.4734 9.6483 13.2484L14.4483 8.44839Z" fill="white"/>
</svg>
