<svg width="32" height="32" viewBox="0 0 32 32" fill="none" xmlns="http://www.w3.org/2000/svg">
<rect width="32" height="32" rx="16" fill="#36AE7C" fill-opacity="0.3"/>
<path fill-rule="evenodd" clip-rule="evenodd" d="M9.14286 10C9.14286 9.46957 9.38367 8.96086 9.81233 8.58579C10.241 8.21071 10.8224 8 11.4286 8H20.5714C21.1776 8 21.759 8.21071 22.1877 8.58579C22.6163 8.96086 22.8571 9.46957 22.8571 10V22C23.1602 22 23.4509 22.1054 23.6653 22.2929C23.8796 22.4804 24 22.7348 24 23C24 23.2652 23.8796 23.5196 23.6653 23.7071C23.4509 23.8946 23.1602 24 22.8571 24H19.4286C19.1255 24 18.8348 23.8946 18.6205 23.7071C18.4061 23.5196 18.2857 23.2652 18.2857 23V21C18.2857 20.7348 18.1653 20.4804 17.951 20.2929C17.7367 20.1054 17.446 20 17.1429 20H14.8571C14.554 20 14.2633 20.1054 14.049 20.2929C13.8347 20.4804 13.7143 20.7348 13.7143 21V23C13.7143 23.2652 13.5939 23.5196 13.3796 23.7071C13.1652 23.8946 12.8745 24 12.5714 24H9.14286C8.83975 24 8.54906 23.8946 8.33474 23.7071C8.12041 23.5196 8 23.2652 8 23C8 22.7348 8.12041 22.4804 8.33474 22.2929C8.54906 22.1054 8.83975 22 9.14286 22V10ZM12.5714 11H14.8571V13H12.5714V11ZM14.8571 15H12.5714V17H14.8571V15ZM17.1429 11H19.4286V13H17.1429V11ZM19.4286 15H17.1429V17H19.4286V15Z" fill="#36AE7C"/>
</svg>
