<svg width="18" height="18" viewBox="0 0 18 18" fill="none" xmlns="http://www.w3.org/2000/svg">
<path d="M3.0001 0.600006C2.36358 0.600006 1.75313 0.852862 1.30304 1.30295C0.852954 1.75304 0.600098 2.36349 0.600098 3.00001V5.40001C0.600098 6.03653 0.852954 6.64697 1.30304 7.09706C1.75313 7.54715 2.36358 7.80001 3.0001 7.80001H5.4001C6.03662 7.80001 6.64707 7.54715 7.09715 7.09706C7.54724 6.64697 7.8001 6.03653 7.8001 5.40001V3.00001C7.8001 2.36349 7.54724 1.75304 7.09715 1.30295C6.64707 0.852862 6.03662 0.600006 5.4001 0.600006H3.0001ZM3.0001 10.2C2.36358 10.2 1.75313 10.4529 1.30304 10.9029C0.852954 11.353 0.600098 11.9635 0.600098 12.6V15C0.600098 15.6365 0.852954 16.247 1.30304 16.6971C1.75313 17.1471 2.36358 17.4 3.0001 17.4H5.4001C6.03662 17.4 6.64707 17.1471 7.09715 16.6971C7.54724 16.247 7.8001 15.6365 7.8001 15V12.6C7.8001 11.9635 7.54724 11.353 7.09715 10.9029C6.64707 10.4529 6.03662 10.2 5.4001 10.2H3.0001ZM10.2001 3.00001C10.2001 2.36349 10.453 1.75304 10.903 1.30295C11.3531 0.852862 11.9636 0.600006 12.6001 0.600006H15.0001C15.6366 0.600006 16.2471 0.852862 16.6972 1.30295C17.1472 1.75304 17.4001 2.36349 17.4001 3.00001V5.40001C17.4001 6.03653 17.1472 6.64697 16.6972 7.09706C16.2471 7.54715 15.6366 7.80001 15.0001 7.80001H12.6001C11.9636 7.80001 11.3531 7.54715 10.903 7.09706C10.453 6.64697 10.2001 6.03653 10.2001 5.40001V3.00001ZM10.2001 12.6C10.2001 11.9635 10.453 11.353 10.903 10.9029C11.3531 10.4529 11.9636 10.2 12.6001 10.2H15.0001C15.6366 10.2 16.2471 10.4529 16.6972 10.9029C17.1472 11.353 17.4001 11.9635 17.4001 12.6V15C17.4001 15.6365 17.1472 16.247 16.6972 16.6971C16.2471 17.1471 15.6366 17.4 15.0001 17.4H12.6001C11.9636 17.4 11.3531 17.1471 10.903 16.6971C10.453 16.247 10.2001 15.6365 10.2001 15V12.6Z" fill="white"/>
</svg>
