<svg width="20" height="20" viewBox="0 0 20 20" fill="none" xmlns="http://www.w3.org/2000/svg">
<path d="M0.399902 1.59999C0.399902 1.28173 0.526331 0.976509 0.751374 0.751466C0.976418 0.526422 1.28164 0.399994 1.5999 0.399994H4.1835C4.46755 0.400125 4.74234 0.501011 4.959 0.684705C5.17565 0.8684 5.32012 1.12299 5.3667 1.40319L6.2547 6.72519C6.29713 6.97866 6.25707 7.23904 6.14042 7.46803C6.02377 7.69702 5.83668 7.88251 5.6067 7.99719L3.7491 8.92479C4.41523 10.5756 5.4073 12.0751 6.66603 13.3339C7.92476 14.5926 9.42432 15.5847 11.0751 16.2508L12.0039 14.3932C12.1185 14.1634 12.3038 13.9765 12.5326 13.8599C12.7613 13.7432 13.0214 13.703 13.2747 13.7452L18.5967 14.6332C18.8769 14.6798 19.1315 14.8242 19.3152 15.0409C19.4989 15.2576 19.5998 15.5323 19.5999 15.8164V18.4C19.5999 18.7183 19.4735 19.0235 19.2484 19.2485C19.0234 19.4736 18.7182 19.6 18.3999 19.6H15.9999C7.3839 19.6 0.399902 12.616 0.399902 3.99999V1.59999Z" fill="white"/>
</svg>
