<svg width="30" height="31" viewBox="0 0 30 31" fill="none" xmlns="http://www.w3.org/2000/svg">
<rect width="30" height="31" rx="6" fill="#36AE7C" fill-opacity="0.3"/>
<path fill-rule="evenodd" clip-rule="evenodd" d="M8 10C8 9.46957 8.21071 8.96086 8.58579 8.58579C8.96086 8.21071 9.46957 8 10 8H20C20.5304 8 21.0391 8.21071 21.4142 8.58579C21.7893 8.96086 22 9.46957 22 10V18C22 18.5304 21.7893 19.0391 21.4142 19.4142C21.0391 19.7893 20.5304 20 20 20H17.78L17.903 20.489L18.707 21.293C18.8468 21.4329 18.942 21.611 18.9806 21.805C19.0192 21.9989 18.9993 22.2 18.9237 22.3827C18.848 22.5654 18.7199 22.7215 18.5555 22.8314C18.391 22.9413 18.1978 23 18 23H12C11.8022 23 11.609 22.9413 11.4445 22.8314C11.2801 22.7215 11.152 22.5654 11.0763 22.3827C11.0007 22.2 10.9808 21.9989 11.0194 21.805C11.058 21.611 11.1532 21.4329 11.293 21.293L12.097 20.489L12.22 20H10C9.46957 20 8.96086 19.7893 8.58579 19.4142C8.21071 19.0391 8 18.5304 8 18V10ZM13.771 17H10V10H20V17H13.771Z" fill="#36AE7C"/>
</svg>
