<svg width="25" height="21" viewBox="0 0 25 21" fill="none" xmlns="http://www.w3.org/2000/svg">
<rect y="0.5" width="24.0121" height="20" rx="10" fill="#B22727" fill-opacity="0.3"/>
<path fill-rule="evenodd" clip-rule="evenodd" d="M6.29279 4.80529C6.48031 4.61782 6.73462 4.5125 6.99979 4.5125C7.26495 4.5125 7.51926 4.61782 7.70679 4.80529L11.9998 9.09829L16.2928 4.80529C16.385 4.70978 16.4954 4.6336 16.6174 4.58119C16.7394 4.52878 16.8706 4.50119 17.0034 4.50004C17.1362 4.49888 17.2678 4.52419 17.3907 4.57447C17.5136 4.62475 17.6253 4.699 17.7192 4.79289C17.8131 4.88679 17.8873 4.99844 17.9376 5.12133C17.9879 5.24423 18.0132 5.37591 18.012 5.50869C18.0109 5.64147 17.9833 5.77269 17.9309 5.89469C17.8785 6.0167 17.8023 6.12704 17.7068 6.21929L13.4138 10.5123L17.7068 14.8053C17.8889 14.9939 17.9897 15.2465 17.9875 15.5087C17.9852 15.7709 17.88 16.0217 17.6946 16.2071C17.5092 16.3925 17.2584 16.4977 16.9962 16.5C16.734 16.5022 16.4814 16.4014 16.2928 16.2193L11.9998 11.9263L7.70679 16.2193C7.51818 16.4014 7.26558 16.5022 7.00339 16.5C6.74119 16.4977 6.49038 16.3925 6.30497 16.2071C6.11956 16.0217 6.01439 15.7709 6.01211 15.5087C6.00983 15.2465 6.11063 14.9939 6.29279 14.8053L10.5858 10.5123L6.29279 6.21929C6.10532 6.03176 6 5.77745 6 5.51229C6 5.24712 6.10532 4.99282 6.29279 4.80529Z" fill="#B22727"/>
</svg>
