<svg xmlns="http://www.w3.org/2000/svg" viewBox="0 0 732 732"><defs><style>.cls-1{fill:none;stroke:#000;stroke-miterlimit:10;stroke-width:12px;}</style></defs><g id="Layer_2" data-name="Layer 2"><g id="Layer_1-2" data-name="Layer 1"><path class="cls-1" d="M556.75,479.56c-2.37-29.65-28.84-53.49-50.8-64.9-19.79-10.28-38.44-12.39-49.89-5.64-15.48,9.13-13.88,30.64-12.47,49.61,1,12.86,2.05,27.43-3.48,30.17-20.22,10-71.91-30-122.92-95.16C296.36,367,278.78,340.16,267.7,318c-13.27-26.58-12.94-38.25-10.65-40.95,2-2.4,9.7-2.8,16.47-3.14,13.49-.69,32-1.64,43.74-17.13a44.56,44.56,0,0,0,8.57-23.35c1.57-17.22-6.71-37.33-22.14-53.78C289.07,164,271.06,155,255.55,155.4c-18.93.51-37.25,14.57-53,40.64-12.91,21.42-22.64,49.11-26,74.07-5.15,38,3.33,80.94,24.51,124.17,19.41,39.63,48.17,77.42,83.16,109.28,51.65,47,107.84,73.06,155.55,73.05a116.76,116.76,0,0,0,26.51-2.93c21.91-5.09,45.26-17.88,62.47-34.23C548.39,520.79,558.34,499.52,556.75,479.56Z"/><path class="cls-1" d="M529.15,213.25c-11.72,26.09-22.54,56.77-28.21,84.46A6.49,6.49,0,0,1,488.62,299l-10.74-24.87A6.49,6.49,0,0,0,467.47,272l-59.56,56a6.49,6.49,0,0,1-9.18-.28h0a6.49,6.49,0,0,1,.28-9.18l59.57-56A6.5,6.5,0,0,0,457.05,252l-24.17-12.25a6.49,6.49,0,0,1,2-12.22c28-4,59.26-12.86,86-23A6.49,6.49,0,0,1,529.15,213.25Z"/><circle class="cls-1" cx="366" cy="366" r="360"/></g></g></svg>